<svg xmlns="http://www.w3.org/2000/svg" xmlns:xlink="http://www.w3.org/1999/xlink" width="1920" height="1287" viewBox="0 0 1920 1287"><defs><linearGradient id="a" x1="0.5" y1="0.183" x2="0.5" y2="0.892" gradientUnits="objectBoundingBox"><stop offset="0" stop-color="#fff" stop-opacity="0.471"/><stop offset="0.505" stop-color="#fff"/><stop offset="1" stop-color="#fff" stop-opacity="0.388"/></linearGradient><filter id="b" x="48.171" y="331.322" width="992.329" height="766.72" filterUnits="userSpaceOnUse"><feOffset dx="-20" dy="30" input="SourceAlpha"/><feGaussianBlur stdDeviation="20" result="c"/><feFlood flood-opacity="0.161"/><feComposite operator="in" in2="c"/><feComposite in="SourceGraphic"/></filter></defs><g transform="translate(0 -2090)"><rect width="1920" height="1287" transform="translate(0 2090)" fill="url(#a)"/><g transform="matrix(1, 0, 0, 1, 0, 2090)" filter="url(#b)"><path d="M379.454,691.72a5.351,5.351,0,0,1-5.185-5.5V448.958L354.015,428.7h-23.4A102.619,102.619,0,0,1,228,326.083V298.126h27.956A102.619,102.619,0,0,1,358.574,400.745v23.4l15.694,15.7v-54.5a5.352,5.352,0,0,1,5.185-5.5h5.207V207.224l-30.647-30.65h-23.4A102.619,102.619,0,0,1,228,73.956V46h27.956A102.619,102.619,0,0,1,358.574,148.619v23.4L384.661,198.1v-1.158h14.087v72.518l27.015-27.013v-23.4A102.619,102.619,0,0,1,528.384,116.436H556.34v27.958A102.617,102.617,0,0,1,453.721,247.01h-23.4l-31.576,31.573V379.835h82.829c1.779-.914,3.595-1.779,5.433-2.59V275.279a31.708,31.708,0,0,1,31.708-31.708h524.1a31.71,31.71,0,0,1,31.71,31.711V593.366a31.663,31.663,0,0,1-12.8,25.458l37.6,24.62a30.276,30.276,0,0,1-30.275,30.276H549.246v12.5a5.351,5.351,0,0,1-5.184,5.5Z" transform="translate(-99.33 315.82)" fill="#f5f5f5" stroke="rgba(0,0,0,0)" stroke-miterlimit="10" stroke-width="1"/></g><g transform="translate(128.672 2451.822)"><g transform="translate(0 0)"><rect width="14.087" height="411.774" transform="translate(156.662 150.946)" fill="#0f3787"/><path d="M918.589,588.1H890.633v27.956A102.619,102.619,0,0,0,993.252,718.678h27.956V690.722A102.619,102.619,0,0,0,918.589,588.1Z" transform="translate(-890.633 -588.103)" fill="#79acde"/><rect width="6.448" height="143.455" transform="matrix(0.707, -0.707, 0.707, 0.707, 56.816, 61.372)" fill="#0f3787"/><g transform="translate(0 252.126)"><path d="M918.589,725.6H890.633V753.56A102.619,102.619,0,0,0,993.252,856.179h27.956V828.221A102.619,102.619,0,0,0,918.589,725.6Z" transform="translate(-890.633 -725.602)" fill="#2f3bea"/><rect width="6.448" height="143.455" transform="matrix(0.707, -0.707, 0.707, 0.707, 56.816, 61.373)" fill="#0f3787"/></g><g transform="translate(165.525 70.436)"><path d="M1101.106,626.516h27.956v27.958a102.617,102.617,0,0,1-102.619,102.617H998.485V729.135A102.619,102.619,0,0,1,1101.106,626.516Z" transform="translate(-966.247 -626.516)" fill="#2f3bea"/><rect width="6.448" height="143.455" transform="matrix(-0.707, -0.707, 0.707, -0.707, 4.559, 162.811)" fill="#0f3787"/></g><g transform="translate(165.527 322.564)"><path d="M1101.106,764.016h27.956v27.956a102.619,102.619,0,0,1-102.619,102.619H998.485V866.635A102.619,102.619,0,0,1,1101.106,764.016Z" transform="translate(-966.249 -764.016)" fill="#79acde"/><rect width="6.448" height="143.455" transform="translate(4.559 162.812) rotate(-135)" fill="#0f3787"/></g></g></g><g transform="translate(362.492 2649.393)"><path d="M955.776,811.978H379.209A30.28,30.28,0,0,1,348.928,781.7H986.051A30.276,30.276,0,0,1,955.776,811.978Z" transform="translate(-348.543 -381.829)" fill="#e9e9e9"/><path d="M755.315,794.36H572.326c-6.269,0-11.353-2.83-11.353-6.316V781.7h205.7v6.342C766.67,791.53,761.59,794.36,755.315,794.36Z" transform="translate(-344.872 -381.829)" fill="#cfd0cf"/><path d="M31.708,0h524.1a31.71,31.71,0,0,1,31.71,31.71V349.794a31.71,31.71,0,0,1-31.71,31.71H31.71A31.71,31.71,0,0,1,0,349.794V31.708A31.708,31.708,0,0,1,31.708,0Z" transform="translate(25.189 0)" fill="#e9e9e9"/><rect width="547.76" height="337.534" rx="12.012" transform="translate(45.068 21.985)" fill="#46c1e9"/><rect width="58.473" height="133.655" transform="translate(108.737 200.049)" fill="#1e2978"/><rect width="58.474" height="133.655" transform="translate(380.966 200.049)" fill="#1e2978"/><rect width="58.473" height="106.762" transform="translate(292.472 226.943)" fill="#1e2978"/><rect width="58.473" height="176.896" transform="translate(203.978 156.809)" fill="#1e2978"/><rect width="58.474" height="219.637" transform="translate(470.296 114.068)" fill="#1e2978"/><g transform="translate(119.587 47.8)"><path d="M501.673,526.2a17.792,17.792,0,1,1-17.786-17.316A17.556,17.556,0,0,1,501.673,526.2Z" transform="translate(-466.102 -434.353)" fill="#f5f5f5"/><path d="M594.114,486.979a17.791,17.791,0,1,1-17.786-17.315A17.556,17.556,0,0,1,594.114,486.979Z" transform="translate(-464.502 -435.032)" fill="#f5f5f5"/><path d="M680.006,564.682a17.791,17.791,0,1,1-17.783-17.314A17.554,17.554,0,0,1,680.006,564.682Z" transform="translate(-463.015 -433.686)" fill="#f5f5f5"/><path d="M765.9,536.866a17.79,17.79,0,1,1-17.784-17.317A17.554,17.554,0,0,1,765.9,536.866Z" transform="translate(-461.528 -434.168)" fill="#f5f5f5"/><path d="M857.67,452.938a17.79,17.79,0,1,1-17.784-17.317A17.555,17.555,0,0,1,857.67,452.938Z" transform="translate(-459.939 -435.621)" fill="#f5f5f5"/><g transform="translate(15.889 15.612)"><path d="M663.982,573.541l-87.109-80.862-91.36,38.763-3.793-8.472,96.723-41.042,87.652,81.3,86.321-27.538,92.049-84.724,1.314,9.2L755.226,544.52Z" transform="translate(-481.72 -450.967)" fill="#f5f5f5"/></g></g><path d="M986.058,782.123H348.55l38.186-24.748H948.259Z" transform="translate(-348.55 -382.251)" fill="#c2c2c4"/></g><g transform="translate(0 -875)"><path d="M648.56,557.113a5.352,5.352,0,0,1-5.185,5.5H478.768a5.352,5.352,0,0,1-5.185-5.5V256.236a5.352,5.352,0,0,1,5.185-5.5H643.376a5.352,5.352,0,0,1,5.185,5.5Z" transform="translate(-198.642 3409.925)" fill="#f5f5f5"/><path d="M661.414,881.035A10.033,10.033,0,1,1,651.382,871,10.033,10.033,0,0,1,661.414,881.035Z" transform="translate(-288.952 3076.028)" fill="#e9e9e9"/><path d="M650,547.1a4.667,4.667,0,0,1-4.669,4.667H497.1a4.667,4.667,0,0,1-4.669-4.667V291.909a4.668,4.668,0,0,1,4.669-4.668H645.335A4.668,4.668,0,0,1,650,291.909Z" transform="translate(-208.788 3390.272)" fill="#46c1e9"/><path d="M657.941,266.322a2.179,2.179,0,0,1-2.178,2.179H598.2a2.179,2.179,0,0,1-2.179-2.179h0a2.179,2.179,0,0,1,2.179-2.179h57.561a2.179,2.179,0,0,1,2.178,2.179Z" transform="translate(-255.599 3401.96)" fill="#e9e9e9"/><path d="M547.443,265.558a2.409,2.409,0,0,1-2.408,2.408h0a2.408,2.408,0,0,1-2.408-2.408h0a2.408,2.408,0,0,1,2.408-2.409h0a2.408,2.408,0,0,1,2.408,2.409Z" transform="translate(-226.855 3402.495)" fill="#e9e9e9"/><rect width="12.67" height="28.96" transform="translate(316.588 3811.392)" fill="#1e2978"/><rect width="12.67" height="28.96" transform="translate(375.574 3811.392)" fill="#1e2978"/><rect width="12.67" height="23.133" transform="translate(356.399 3817.219)" fill="#1e2978"/><rect width="12.67" height="38.33" transform="translate(337.225 3802.023)" fill="#1e2978"/><rect width="12.67" height="47.59" transform="translate(394.93 3792.762)" fill="#1e2978"/><g transform="translate(318.939 3778.403)"><path d="M473.809,512.639a3.855,3.855,0,1,1-3.854-3.752A3.8,3.8,0,0,1,473.809,512.639Z" transform="translate(-466.102 -492.737)" fill="#f5f5f5"/><path d="M566.252,473.416a3.855,3.855,0,1,1-3.854-3.752A3.8,3.8,0,0,1,566.252,473.416Z" transform="translate(-538.168 -462.16)" fill="#f5f5f5"/><path d="M652.143,551.119a3.855,3.855,0,1,1-3.853-3.752A3.8,3.8,0,0,1,652.143,551.119Z" transform="translate(-605.126 -522.736)" fill="#f5f5f5"/><path d="M738.035,523.3a3.855,3.855,0,1,1-3.853-3.752A3.8,3.8,0,0,1,738.035,523.3Z" transform="translate(-672.085 -501.049)" fill="#f5f5f5"/><path d="M829.809,439.373a3.855,3.855,0,1,1-3.853-3.752A3.8,3.8,0,0,1,829.809,439.373Z" transform="translate(-743.629 -435.621)" fill="#f5f5f5"/><g transform="translate(3.443 3.383)"><path d="M521.212,477.526l-18.875-17.521-19.8,8.4-.822-1.836,20.958-8.893,18.992,17.616,18.7-5.967,19.945-18.358.285,1.994-19.621,18.277Z" transform="translate(-481.72 -450.967)" fill="#f5f5f5"/></g></g></g></g></svg>