<svg xmlns="http://www.w3.org/2000/svg" width="359.312" height="339.312" viewBox="0 0 359.312 339.312"><g transform="translate(-1594.8 -1530.87)"><g transform="translate(1910.95 1845.061) rotate(-179)"><g transform="translate(0 155.429) rotate(-45)"><path d="M36.289,169.5H0V133.21A133.21,133.21,0,0,1,133.21,0H169.5V36.29A133.21,133.21,0,0,1,36.289,169.5Z" transform="translate(0 51.237)" fill="#46c1e9"/><path d="M6.66,187.643,5.748,3.9S6.028.3,3.294.024A2.874,2.874,0,0,0,0,2.026Z" transform="translate(215.101 0) rotate(44.998)" fill="#0f3787"/></g><g transform="translate(10.438 2.344)"><path d="M25.472,118.979H0V93.5A93.5,93.5,0,0,1,93.505,0h25.472V25.475A93.5,93.5,0,0,1,25.472,118.979Z" transform="translate(0 29.195)" fill="#fee71f"/><path d="M5.876,130.458V4.266S3.079,0,1.61,0,0,4.266,0,4.266Z" transform="translate(144.014 0) rotate(44.998)" fill="#0f3787"/></g><g transform="translate(152.221 4.295)"><path d="M93.505,118.977h25.474V93.5A93.5,93.5,0,0,0,25.475,0H0V25.473A93.5,93.5,0,0,0,93.505,118.977Z" transform="translate(29.373 27.867)" fill="#fee71f"/><path d="M0,130.713H5.875L0,0Z" transform="translate(96.583 92.428) rotate(135)" fill="#0f3787"/></g></g><path d="M4092.889,3184.183s32.2-192.183,0-120.183c-55.982,19.788-55.7,33-84.4,60.3s-46.7-9.4-76.7,14-26.9-9.1-63.1-7.7c-30.6,6.6-39.8,28-49,32s-11.8,1.4-33.2,0-38.6,21.583-38.6,21.583Z" transform="translate(-2153.089 -1314)" fill="#2f3bea"/></g></svg>