<svg xmlns="http://www.w3.org/2000/svg" width="389.704" height="146.867" viewBox="0 0 389.704 146.867"><path d="M65.4,195.884a7.688,7.688,0,1,0,7.689,7.689,7.688,7.688,0,0,0-7.689-7.689" transform="translate(-34.56 -115.495)" fill="#dad814"/><path d="M145.09,173.105q-.946,0-1.9-.061A29.361,29.361,0,0,1,122.434,162.4a32.312,32.312,0,0,1-1.416-39.129,5.881,5.881,0,0,1,9.549,6.867,20.407,20.407,0,0,0,.886,24.712,17.7,17.7,0,0,0,12.5,6.457,17.45,17.45,0,0,0,13.021-4.7,5.881,5.881,0,1,1,7.974,8.646,29.112,29.112,0,0,1-19.853,7.853" transform="translate(-68.101 -71.631)" fill="#dad814"/><path d="M291.094,209.682a26.575,26.575,0,0,1-18.517-7.508,5.881,5.881,0,0,1,8.171-8.461,15.031,15.031,0,0,0,17.889,2.213,5.881,5.881,0,1,1,5.734,10.269,27.179,27.179,0,0,1-13.276,3.487" transform="translate(-159.076 -113.262)" fill="#dad814"/><path d="M217.826,177.253a5.88,5.88,0,0,1-4.524-9.634,17.334,17.334,0,0,0-1.538-23.606,14.856,14.856,0,0,0-11.092-3.945,15.1,15.1,0,0,0-10.619,5.559A5.88,5.88,0,1,1,181,138.121a26.592,26.592,0,0,1,38.7-2.793,29.228,29.228,0,0,1,2.662,39.8,5.868,5.868,0,0,1-4.531,2.128" transform="translate(-105.819 -75.983)" fill="#dad814"/><path d="M86.967,229.689a5.881,5.881,0,0,1-5.881-5.881,33.932,33.932,0,0,1,33.894-33.893h76.789c9.875,0,17.91-8.563,17.91-19.09s-8.036-19.09-17.91-19.09a16.806,16.806,0,0,0-8.025,2.019,5.881,5.881,0,1,1-5.557-10.367,28.859,28.859,0,0,1,13.582-3.414c16.361,0,29.673,13.84,29.673,30.852s-13.312,30.852-29.673,30.852H114.98a22.157,22.157,0,0,0-22.132,22.132,5.88,5.88,0,0,1-5.881,5.881" transform="translate(-48.222 -82.821)" fill="#dad814"/><path d="M59.908,102.784a5.884,5.884,0,0,1-5.817-6.8,67.492,67.492,0,0,1,2.246-7.977l.032-.094C63.009,69.175,80.342,56.586,99.5,56.586c17.656,0,33.47,10.271,41.267,26.8l.1.218c.085.2,2.088,4.948,3.1,8.113a5.881,5.881,0,1,1-11.2,3.582c-.775-2.422-2.393-6.306-2.685-7-5.854-12.31-17.559-19.951-30.578-19.951-14.17,0-27.035,9.422-32.027,23.448-.744,2.222-1.625,5.157-1.762,6.026a5.884,5.884,0,0,1-5.8,4.963" transform="translate(-32.404 -34.092)" fill="#dad814"/><path d="M271.144,112.515a5.883,5.883,0,0,1-5.589-4.056c-4.7-14.386-17.524-24.051-31.914-24.051a31.926,31.926,0,0,0-13.4,2.925,5.881,5.881,0,0,1-4.9-10.692,43.615,43.615,0,0,1,18.3-3.995c19.494,0,36.812,12.925,43.094,32.162a5.885,5.885,0,0,1-5.591,7.708" transform="translate(-124.674 -43.476)" fill="#dad814"/><path d="M32.818,201.276a30.805,30.805,0,1,1,29.017-41.167,5.881,5.881,0,1,1-11.076,3.956,19.047,19.047,0,1,0-17.941,25.45,5.881,5.881,0,1,1,0,11.761" transform="translate(-2.013 -82.642)" fill="#dad814"/><path d="M320.237,28.149a5.3,5.3,0,0,1-4.893-7.309l6.217-15.1a5.292,5.292,0,0,1,9.787,4.03l-6.217,15.1a5.293,5.293,0,0,1-4.9,3.278" transform="translate(-184.885 -2.463)" fill="#dad814"/><path d="M381.578,95.04a5.293,5.293,0,0,1-2.017-10.187l15.1-6.217a5.293,5.293,0,0,1,4.03,9.788l-15.1,6.217a5.285,5.285,0,0,1-2.013.4" transform="translate(-220.73 -46.744)" fill="#dad814"/><path d="M357.151,52.613a5.293,5.293,0,0,1-3.832-8.942l11.9-12.5a5.293,5.293,0,0,1,7.667,7.3l-11.9,12.5a5.28,5.28,0,0,1-3.834,1.643" transform="translate(-206.457 -18.278)" fill="#dad814"/><g transform="translate(207.154 37.591)"><g transform="translate(1.76)"><path d="M504.678,96.416s-.09,6.913.407,9.109c.373,1.649,1.247,3.359,5.4,3.359,4.027,0,22.478.173,22.478.173A9.959,9.959,0,0,1,540,120.383c-1,7.481-7.343,7.342-7.343,7.342l-27.976.144V162.5h10.659s2.217-.138,2.494-5.126-.139-18.01-.139-18.01l9.819.121,11.9,20.054s1.4,2.7,4,2.442,12.1.1,12.1.1l-14.651-24.677s12.52-5.974,12.053-20.365S540.032,96,533.382,96h-28.7Z" transform="translate(-504.672 -94.715)" fill="#1e2978"/><path d="M693.337,108.091l-7,4.087s-4.208,1.109-6.373-1.732c-3.4-4.461-13.715-7.2-17.525-1.662s1.108,10.46,12.676,13.369,18.218,8.449,19.672,15.1c1.136,5.2,1.732,21.006-15.863,23.552-17.629,2.551-25.422-1.611-33.6-15.118,0,0,5.884-3.765,7.966-4.693,1.26-.562,2.886-.838,5.2,1.861,3.948,4.616,16.126,10.307,22.443,2.711,7.481-9-14.962-13.092-20.435-15.378-2.469-1.031-13.784-6.719-12.4-19.326s12.538-18.376,23.136-17.708S690.7,101.3,693.337,108.091Z" transform="translate(-586.872 -93.022)" fill="#1e2978"/><path d="M851.254,108.481l-7.5,4.416s-3.429,1.922-6.234-.727-8.728-8.364-20.989-5.559-14.7,16-14.7,16S796.756,149.8,823.65,148.8a22.475,22.475,0,0,0,14.183-5.715s3.065-3.117,5.871-1.559c3.318,1.843,7.55,4.832,7.55,4.832s-5.68,16.417-30.409,15.482c-9.9-.374-32.47-6.962-32.47-32.054,0-21.768,13.144-33.2,27.9-36.211S846.024,98.246,851.254,108.481Z" transform="translate(-670.463 -92.909)" fill="#1e2978"/></g><text transform="translate(0 78.556)" fill="#1e2978" font-size="25" font-family="GillSansMT, Gill Sans MT"><tspan x="0" y="23">INOVAÇÃO</tspan></text></g></svg>