<svg xmlns="http://www.w3.org/2000/svg" width="89.076" height="89.078" viewBox="0 0 89.076 89.078"><g transform="translate(1.02 3.958) rotate(-2)"><g transform="translate(0 0)"><path d="M43.274,7.885c11.135.393,12.453.481,16.843.836a23.035,23.035,0,0,1,7.694,1.709A12.917,12.917,0,0,1,72.5,13.717a12.952,12.952,0,0,1,2.952,4.9,23.185,23.185,0,0,1,1.164,7.8c.046,4.4.043,5.726-.348,16.86s-.479,12.452-.834,16.843a23.1,23.1,0,0,1-1.707,7.693,13.807,13.807,0,0,1-8.192,7.638,23.159,23.159,0,0,1-7.795,1.165c-4.4.046-5.724.041-16.86-.35s-12.453-.479-16.841-.835a22.967,22.967,0,0,1-7.694-1.707,12.889,12.889,0,0,1-4.687-3.287,12.92,12.92,0,0,1-2.951-4.9,23.119,23.119,0,0,1-1.165-7.794c-.045-4.4-.042-5.725.348-16.861s.479-12.452.833-16.84a23.174,23.174,0,0,1,1.708-7.7,12.946,12.946,0,0,1,3.288-4.684A12.921,12.921,0,0,1,18.62,8.7a23.018,23.018,0,0,1,7.794-1.163c4.4-.05,5.724-.044,16.86.344M43.538.374c-11.327-.4-12.749-.4-17.2-.354A30.685,30.685,0,0,0,16.143,1.606,20.438,20.438,0,0,0,8.588,6.157a20.438,20.438,0,0,0-5.07,7.219A30.587,30.587,0,0,0,1.228,23.428C.867,27.87.77,29.288.373,40.613s-.4,12.749-.352,17.2A30.586,30.586,0,0,0,1.6,68.007a20.456,20.456,0,0,0,4.55,7.557,20.509,20.509,0,0,0,7.218,5.068,30.657,30.657,0,0,0,10.055,2.293c4.441.36,5.86.456,17.186.853s12.747.4,17.2.353a30.571,30.571,0,0,0,10.19-1.584A21.336,21.336,0,0,0,80.63,70.779a30.65,30.65,0,0,0,2.294-10.057c.359-4.439.456-5.856.852-17.183s.4-12.749.355-17.2a30.691,30.691,0,0,0-1.584-10.191A20.46,20.46,0,0,0,78,8.59a20.424,20.424,0,0,0-7.219-5.069A30.575,30.575,0,0,0,60.723,1.227C56.28.87,54.862.769,43.538.374" fill="none" stroke="#fee71f" stroke-width="2"/><path d="M22.178.013A21.427,21.427,0,1,0,42.842,22.176,21.427,21.427,0,0,0,22.178.013M20.94,35.328A13.909,13.909,0,1,1,35.328,21.915,13.909,13.909,0,0,1,20.94,35.328" transform="translate(20.647 20.648)" fill="none" stroke="#fee71f" stroke-width="2"/><path d="M10.013,5.185A5.008,5.008,0,1,1,5.184,0a5.008,5.008,0,0,1,4.828,5.182" transform="translate(60.109 15.585)" fill="none" stroke="#fee71f" stroke-width="2"/></g></g></svg>