<svg xmlns="http://www.w3.org/2000/svg" width="54.4" height="41.437" viewBox="0 0 54.4 41.437"><g transform="translate(-93.034 -348.614)"><path d="M142.652,348.614H97.814a4.789,4.789,0,0,0-4.78,4.782v31.875a4.788,4.788,0,0,0,4.78,4.78h44.838a4.789,4.789,0,0,0,4.782-4.78V353.4a4.79,4.79,0,0,0-4.782-4.782Zm-.661,3.188-21.657,21.657L98.491,351.8ZM96.221,384.61v-30.57l15.351,15.218Zm2.254,2.254,15.36-15.36,5.382,5.335a1.594,1.594,0,0,0,2.25-.006l5.249-5.247,15.276,15.278Zm45.771-2.254-15.278-15.278,15.278-15.278Zm0,0" fill="#8d8aa9"/></g></svg>