<svg xmlns="http://www.w3.org/2000/svg" width="44.4" height="67.806" viewBox="0 0 44.4 67.806"><path d="M137.993,144.774H108.205a7.314,7.314,0,0,0-7.306,7.3v53.2a7.314,7.314,0,0,0,7.306,7.3h29.788a7.314,7.314,0,0,0,7.306-7.3v-53.2a7.314,7.314,0,0,0-7.306-7.3Zm-29.788,3.972h29.788a3.337,3.337,0,0,1,3.334,3.332v39.508H104.871V152.078a3.337,3.337,0,0,1,3.334-3.332Zm29.788,59.862H108.205a3.337,3.337,0,0,1-3.334-3.332v-9.718h36.456v9.718a3.337,3.337,0,0,1-3.334,3.332Zm0,0M123.1,196.9a5.178,5.178,0,1,0,5.179,5.177A5.183,5.183,0,0,0,123.1,196.9Zm0,6.384a1.206,1.206,0,1,1,1.207-1.207,1.207,1.207,0,0,1-1.207,1.207Zm0,0" transform="translate(-100.899 -144.774)" fill="#8d8aa9"/></svg>