<svg xmlns="http://www.w3.org/2000/svg" width="68.701" height="68.732" viewBox="0 0 68.701 68.732"><g transform="translate(1 1)"><g transform="translate(0 0)"><rect width="13.771" height="44.487" transform="translate(1.323 22.245)" fill="none" stroke="#fee71f" stroke-width="2"/><path d="M257.1,367.06a8.21,8.21,0,1,0-8.142-8.212A8.18,8.18,0,0,0,257.1,367.06Z" transform="translate(-248.96 -350.64)" fill="none" stroke="#fee71f" stroke-width="2"/><path d="M283.072,391.4c0-6.257,2.877-9.982,8.389-9.982,5.063,0,7.5,3.577,7.5,9.982v23.351h13.706V386.586c0-11.918-6.754-17.678-16.186-17.678a15.508,15.508,0,0,0-13.407,7.349v-5.992H269.861v44.488h13.211Z" transform="translate(-245.963 -348.02)" fill="none" stroke="#fee71f" stroke-width="2"/></g></g></svg>