<svg xmlns="http://www.w3.org/2000/svg" width="48.4" height="55.926" viewBox="0 0 48.4 55.926"><g transform="translate(-99.734 -195.646)"><path d="M141.045,202.735a24.2,24.2,0,0,0-34.223,34.223l12.857,12.856a6.028,6.028,0,0,0,8.509,0l12.857-12.856a24.2,24.2,0,0,0,0-34.223Zm-2.317,31.9L125.871,247.5a2.755,2.755,0,0,1-3.875,0L109.14,234.64a20.922,20.922,0,1,1,29.588,0Zm0,0" fill="#8d8aa9"/><path d="M118.286,205.54a8.658,8.658,0,1,0,8.658,8.658,8.668,8.668,0,0,0-8.658-8.658Zm0,14.04a5.382,5.382,0,1,1,5.382-5.382,5.388,5.388,0,0,1-5.382,5.382Zm0,0" transform="translate(5.648 5.647)" fill="#8d8aa9"/></g></svg>